<svg xmlns="http://www.w3.org/2000/svg" xmlns:xlink="http://www.w3.org/1999/xlink" width="500" zoomAndPan="magnify" viewBox="0 0 375 374.999991" height="500" preserveAspectRatio="xMidYMid meet" version="1.0"><defs><clipPath id="da41e7f3b3"><path d="M 77 37.5 L 298.6875 37.5 L 298.6875 337 L 77 337 Z M 77 37.5 " clip-rule="nonzero"/></clipPath></defs><g clip-path="url(#da41e7f3b3)"><path fill="#829191" d="M 285.253906 336.203125 C 283.46875 336.195312 281.753906 335.835938 280.117188 335.125 C 278.476562 334.414062 277.046875 333.410156 275.824219 332.109375 L 187.6875 238.796875 L 99.550781 332.109375 C 98.65625 333.050781 97.644531 333.839844 96.511719 334.476562 C 95.382812 335.113281 94.183594 335.570312 92.914062 335.847656 C 91.644531 336.128906 90.363281 336.214844 89.070312 336.109375 C 87.777344 336.003906 86.527344 335.714844 85.320312 335.234375 C 84.113281 334.757812 83 334.113281 81.988281 333.300781 C 80.972656 332.492188 80.101562 331.550781 79.371094 330.480469 C 78.640625 329.410156 78.082031 328.253906 77.695312 327.015625 C 77.3125 325.777344 77.117188 324.511719 77.109375 323.214844 L 77.109375 50.488281 C 77.109375 49.632812 77.195312 48.789062 77.359375 47.953125 C 77.527344 47.117188 77.773438 46.304688 78.101562 45.515625 C 78.429688 44.730469 78.828125 43.980469 79.304688 43.273438 C 79.777344 42.5625 80.316406 41.90625 80.921875 41.304688 C 81.523438 40.699219 82.183594 40.164062 82.894531 39.6875 C 83.601562 39.214844 84.351562 38.816406 85.140625 38.488281 C 85.929688 38.164062 86.746094 37.914062 87.582031 37.75 C 88.421875 37.582031 89.265625 37.5 90.121094 37.5 L 285.253906 37.5 C 286.109375 37.5 286.953125 37.582031 287.792969 37.75 C 288.628906 37.914062 289.445312 38.164062 290.234375 38.488281 C 291.023438 38.816406 291.773438 39.214844 292.480469 39.6875 C 293.191406 40.164062 293.847656 40.699219 294.453125 41.304688 C 295.058594 41.90625 295.597656 42.5625 296.070312 43.273438 C 296.546875 43.980469 296.945312 44.730469 297.273438 45.515625 C 297.601562 46.304688 297.847656 47.117188 298.015625 47.953125 C 298.179688 48.789062 298.265625 49.632812 298.265625 50.488281 L 298.265625 323.214844 C 298.265625 324.066406 298.179688 324.910156 298.015625 325.746094 C 297.847656 326.585938 297.601562 327.394531 297.273438 328.183594 C 296.945312 328.972656 296.546875 329.71875 296.070312 330.429688 C 295.597656 331.136719 295.058594 331.792969 294.453125 332.398438 C 293.847656 333 293.191406 333.539062 292.480469 334.011719 C 291.773438 334.484375 291.023438 334.886719 290.234375 335.210938 C 289.445312 335.539062 288.628906 335.785156 287.792969 335.953125 C 286.953125 336.117188 286.109375 336.203125 285.253906 336.203125 Z M 187.6875 207.175781 C 189.472656 207.179688 191.1875 207.539062 192.824219 208.25 C 194.464844 208.960938 195.894531 209.964844 197.117188 211.265625 L 272.246094 290.746094 L 272.246094 63.472656 L 103.128906 63.472656 L 103.128906 290.746094 L 178.257812 211.203125 C 179.484375 209.914062 180.917969 208.921875 182.558594 208.222656 C 184.195312 207.523438 185.90625 207.171875 187.6875 207.175781 Z M 187.6875 207.175781 " fill-opacity="1" fill-rule="nonzero"/></g></svg>