<svg xmlns="http://www.w3.org/2000/svg" xmlns:xlink="http://www.w3.org/1999/xlink" width="1640" zoomAndPan="magnify" viewBox="0 0 1230 693.000001" height="924" preserveAspectRatio="xMidYMid meet" version="1.0"><defs><g/><clipPath id="f2aba433a8"><path d="M 54.015625 252.933594 L 191.816406 252.933594 L 191.816406 439 L 54.015625 439 Z M 54.015625 252.933594 " clip-rule="nonzero"/></clipPath></defs><g clip-path="url(#f2aba433a8)"><path fill="#829191" d="M 183.484375 438.609375 C 182.375 438.605469 181.3125 438.382812 180.292969 437.9375 C 179.277344 437.496094 178.386719 436.871094 177.628906 436.066406 L 122.917969 378.0625 L 68.207031 436.066406 C 67.652344 436.648438 67.023438 437.140625 66.320312 437.535156 C 65.617188 437.929688 64.875 438.214844 64.085938 438.390625 C 63.300781 438.5625 62.503906 438.617188 61.699219 438.550781 C 60.898438 438.484375 60.121094 438.304688 59.371094 438.007812 C 58.621094 437.710938 57.933594 437.308594 57.304688 436.804688 C 56.675781 436.300781 56.132812 435.71875 55.679688 435.050781 C 55.226562 434.386719 54.878906 433.667969 54.640625 432.898438 C 54.402344 432.128906 54.28125 431.339844 54.277344 430.535156 L 54.277344 261.007812 C 54.277344 260.476562 54.328125 259.953125 54.433594 259.433594 C 54.535156 258.914062 54.6875 258.40625 54.890625 257.917969 C 55.09375 257.429688 55.34375 256.960938 55.636719 256.523438 C 55.933594 256.082031 56.265625 255.671875 56.640625 255.296875 C 57.015625 254.921875 57.425781 254.589844 57.867188 254.292969 C 58.304688 254 58.773438 253.75 59.261719 253.546875 C 59.75 253.347656 60.257812 253.191406 60.777344 253.089844 C 61.296875 252.984375 61.820312 252.933594 62.351562 252.933594 L 183.484375 252.933594 C 184.011719 252.933594 184.539062 252.984375 185.058594 253.089844 C 185.578125 253.191406 186.082031 253.347656 186.574219 253.546875 C 187.0625 253.75 187.527344 254 187.96875 254.292969 C 188.410156 254.589844 188.816406 254.921875 189.191406 255.296875 C 189.566406 255.671875 189.902344 256.082031 190.199219 256.523438 C 190.492188 256.960938 190.742188 257.429688 190.945312 257.917969 C 191.148438 258.40625 191.300781 258.914062 191.402344 259.433594 C 191.507812 259.953125 191.558594 260.476562 191.558594 261.007812 L 191.558594 430.535156 C 191.558594 431.066406 191.507812 431.589844 191.402344 432.109375 C 191.300781 432.628906 191.148438 433.132812 190.945312 433.625 C 190.742188 434.113281 190.492188 434.578125 190.199219 435.019531 C 189.902344 435.460938 189.566406 435.867188 189.191406 436.242188 C 188.816406 436.617188 188.410156 436.953125 187.96875 437.246094 C 187.527344 437.542969 187.0625 437.789062 186.574219 437.992188 C 186.082031 438.195312 185.578125 438.347656 185.058594 438.453125 C 184.539062 438.554688 184.011719 438.609375 183.484375 438.609375 Z M 122.917969 358.40625 C 124.027344 358.410156 125.089844 358.632812 126.105469 359.074219 C 127.125 359.515625 128.011719 360.140625 128.773438 360.949219 L 175.40625 410.351562 L 175.40625 269.078125 L 70.425781 269.078125 L 70.425781 410.351562 L 117.0625 360.90625 C 117.824219 360.105469 118.714844 359.488281 119.734375 359.054688 C 120.75 358.621094 121.8125 358.402344 122.917969 358.40625 Z M 122.917969 358.40625 " fill-opacity="1" fill-rule="nonzero"/></g><g fill="#829191" fill-opacity="1"><g transform="translate(206.80765, 403.667511)"><g><path d="M 106.953125 -40.75 C 106.003906 -27.582031 101.144531 -17.21875 92.375 -9.65625 C 83.613281 -2.09375 72.0625 1.6875 57.71875 1.6875 C 42.039062 1.6875 29.703125 -3.59375 20.703125 -14.15625 C 11.710938 -24.71875 7.21875 -39.210938 7.21875 -57.640625 L 7.21875 -65.125 C 7.21875 -76.882812 9.289062 -87.242188 13.4375 -96.203125 C 17.582031 -105.171875 23.503906 -112.046875 31.203125 -116.828125 C 38.910156 -121.617188 47.863281 -124.015625 58.0625 -124.015625 C 72.175781 -124.015625 83.546875 -120.234375 92.171875 -112.671875 C 100.796875 -105.109375 105.78125 -94.492188 107.125 -80.828125 L 81.921875 -80.828125 C 81.304688 -88.722656 79.109375 -94.445312 75.328125 -98 C 71.546875 -101.5625 65.789062 -103.34375 58.0625 -103.34375 C 49.65625 -103.34375 43.363281 -100.332031 39.1875 -94.3125 C 35.019531 -88.289062 32.878906 -78.953125 32.765625 -66.296875 L 32.765625 -57.046875 C 32.765625 -43.828125 34.765625 -34.164062 38.765625 -28.0625 C 42.773438 -21.957031 49.09375 -18.90625 57.71875 -18.90625 C 65.507812 -18.90625 71.320312 -20.679688 75.15625 -24.234375 C 78.988281 -27.796875 81.1875 -33.300781 81.75 -40.75 Z M 106.953125 -40.75 "/></g></g></g><g fill="#829191" fill-opacity="1"><g transform="translate(317.675552, 403.667511)"><g><path d="M 33.015625 -81 C 39.460938 -88.726562 47.554688 -92.59375 57.296875 -92.59375 C 77.015625 -92.59375 87.015625 -81.140625 87.296875 -58.234375 L 87.296875 0 L 63.015625 0 L 63.015625 -57.5625 C 63.015625 -62.769531 61.894531 -66.617188 59.65625 -69.109375 C 57.414062 -71.597656 53.691406 -72.84375 48.484375 -72.84375 C 41.367188 -72.84375 36.210938 -70.097656 33.015625 -64.609375 L 33.015625 0 L 8.734375 0 L 8.734375 -129.0625 L 33.015625 -129.0625 Z M 33.015625 -81 "/></g></g></g><g fill="#829191" fill-opacity="1"><g transform="translate(412.243307, 403.667511)"><g><path d="M 62.015625 0 C 60.890625 -2.1875 60.078125 -4.90625 59.578125 -8.15625 C 53.691406 -1.59375 46.046875 1.6875 36.640625 1.6875 C 27.734375 1.6875 20.351562 -0.890625 14.5 -6.046875 C 8.644531 -11.203125 5.71875 -17.703125 5.71875 -25.546875 C 5.71875 -35.179688 9.285156 -42.570312 16.421875 -47.71875 C 23.566406 -52.875 33.890625 -55.476562 47.390625 -55.53125 L 58.5625 -55.53125 L 58.5625 -60.75 C 58.5625 -64.945312 57.484375 -68.304688 55.328125 -70.828125 C 53.171875 -73.347656 49.769531 -74.609375 45.125 -74.609375 C 41.03125 -74.609375 37.820312 -73.628906 35.5 -71.671875 C 33.175781 -69.710938 32.015625 -67.023438 32.015625 -63.609375 L 7.734375 -63.609375 C 7.734375 -68.867188 9.359375 -73.738281 12.609375 -78.21875 C 15.859375 -82.707031 20.453125 -86.222656 26.390625 -88.765625 C 32.328125 -91.316406 38.988281 -92.59375 46.375 -92.59375 C 57.582031 -92.59375 66.476562 -89.773438 73.0625 -84.140625 C 79.644531 -78.515625 82.9375 -70.601562 82.9375 -60.40625 L 82.9375 -21 C 82.988281 -12.375 84.191406 -5.847656 86.546875 -1.421875 L 86.546875 0 Z M 41.921875 -16.890625 C 45.503906 -16.890625 48.804688 -17.6875 51.828125 -19.28125 C 54.859375 -20.875 57.101562 -23.015625 58.5625 -25.703125 L 58.5625 -41.34375 L 49.484375 -41.34375 C 37.328125 -41.34375 30.859375 -37.140625 30.078125 -28.734375 L 30 -27.3125 C 30 -24.28125 31.0625 -21.785156 33.1875 -19.828125 C 35.3125 -17.867188 38.222656 -16.890625 41.921875 -16.890625 Z M 41.921875 -16.890625 "/></g></g></g><g fill="#829191" fill-opacity="1"><g transform="translate(502.778021, 403.667511)"><g><path d="M 91.171875 -44.609375 C 91.171875 -30.609375 87.988281 -19.390625 81.625 -10.953125 C 75.269531 -2.523438 66.6875 1.6875 55.875 1.6875 C 46.6875 1.6875 39.265625 -1.503906 33.609375 -7.890625 L 33.609375 34.953125 L 9.328125 34.953125 L 9.328125 -90.90625 L 31.84375 -90.90625 L 32.6875 -82 C 38.5625 -89.0625 46.234375 -92.59375 55.703125 -92.59375 C 66.910156 -92.59375 75.625 -88.445312 81.84375 -80.15625 C 88.0625 -71.863281 91.171875 -60.4375 91.171875 -45.875 Z M 66.875 -46.375 C 66.875 -54.832031 65.375 -61.359375 62.375 -65.953125 C 59.382812 -70.546875 55.035156 -72.84375 49.328125 -72.84375 C 41.703125 -72.84375 36.460938 -69.929688 33.609375 -64.109375 L 33.609375 -26.890625 C 36.578125 -20.890625 41.867188 -17.890625 49.484375 -17.890625 C 61.078125 -17.890625 66.875 -27.382812 66.875 -46.375 Z M 66.875 -46.375 "/></g></g></g><g fill="#829191" fill-opacity="1"><g transform="translate(597.933943, 403.667511)"><g><path d="M 38.390625 -113.265625 L 38.390625 -90.90625 L 53.9375 -90.90625 L 53.9375 -73.09375 L 38.390625 -73.09375 L 38.390625 -27.734375 C 38.390625 -24.367188 39.035156 -21.957031 40.328125 -20.5 C 41.617188 -19.039062 44.082031 -18.3125 47.71875 -18.3125 C 50.414062 -18.3125 52.796875 -18.507812 54.859375 -18.90625 L 54.859375 -0.5 C 50.097656 0.957031 45.195312 1.6875 40.15625 1.6875 C 23.132812 1.6875 14.453125 -6.910156 14.109375 -24.109375 L 14.109375 -73.09375 L 0.84375 -73.09375 L 0.84375 -90.90625 L 14.109375 -90.90625 L 14.109375 -113.265625 Z M 38.390625 -113.265625 "/></g></g></g><g fill="#829191" fill-opacity="1"><g transform="translate(654.355942, 403.667511)"><g><path d="M 51.171875 1.6875 C 37.835938 1.6875 26.984375 -2.398438 18.609375 -10.578125 C 10.234375 -18.765625 6.046875 -29.660156 6.046875 -43.265625 L 6.046875 -45.625 C 6.046875 -54.75 7.8125 -62.910156 11.34375 -70.109375 C 14.875 -77.304688 19.875 -82.851562 26.34375 -86.75 C 32.8125 -90.644531 40.191406 -92.59375 48.484375 -92.59375 C 60.921875 -92.59375 70.707031 -88.671875 77.84375 -80.828125 C 84.988281 -72.984375 88.5625 -61.863281 88.5625 -47.46875 L 88.5625 -37.5625 L 30.671875 -37.5625 C 31.453125 -31.625 33.816406 -26.859375 37.765625 -23.265625 C 41.710938 -19.679688 46.710938 -17.890625 52.765625 -17.890625 C 62.117188 -17.890625 69.429688 -21.28125 74.703125 -28.0625 L 86.625 -14.703125 C 82.988281 -9.546875 78.0625 -5.523438 71.84375 -2.640625 C 65.625 0.242188 58.734375 1.6875 51.171875 1.6875 Z M 48.390625 -72.9375 C 43.578125 -72.9375 39.671875 -71.3125 36.671875 -68.0625 C 33.679688 -64.8125 31.765625 -60.160156 30.921875 -54.109375 L 64.703125 -54.109375 L 64.703125 -56.046875 C 64.585938 -61.421875 63.128906 -65.578125 60.328125 -68.515625 C 57.523438 -71.460938 53.546875 -72.9375 48.390625 -72.9375 Z M 48.390625 -72.9375 "/></g></g></g><g fill="#829191" fill-opacity="1"><g transform="translate(745.646844, 403.667511)"><g><path d="M 60.40625 -68.140625 C 57.101562 -68.585938 54.191406 -68.8125 51.671875 -68.8125 C 42.484375 -68.8125 36.460938 -65.703125 33.609375 -59.484375 L 33.609375 0 L 9.328125 0 L 9.328125 -90.90625 L 32.265625 -90.90625 L 32.9375 -80.078125 C 37.8125 -88.421875 44.5625 -92.59375 53.1875 -92.59375 C 55.875 -92.59375 58.394531 -92.226562 60.75 -91.5 Z M 60.40625 -68.140625 "/></g></g></g><g fill="#829191" fill-opacity="1"><g transform="translate(806.690027, 403.667511)"><g><path d="M 106.953125 -40.75 C 106.003906 -27.582031 101.144531 -17.21875 92.375 -9.65625 C 83.613281 -2.09375 72.0625 1.6875 57.71875 1.6875 C 42.039062 1.6875 29.703125 -3.59375 20.703125 -14.15625 C 11.710938 -24.71875 7.21875 -39.210938 7.21875 -57.640625 L 7.21875 -65.125 C 7.21875 -76.882812 9.289062 -87.242188 13.4375 -96.203125 C 17.582031 -105.171875 23.503906 -112.046875 31.203125 -116.828125 C 38.910156 -121.617188 47.863281 -124.015625 58.0625 -124.015625 C 72.175781 -124.015625 83.546875 -120.234375 92.171875 -112.671875 C 100.796875 -105.109375 105.78125 -94.492188 107.125 -80.828125 L 81.921875 -80.828125 C 81.304688 -88.722656 79.109375 -94.445312 75.328125 -98 C 71.546875 -101.5625 65.789062 -103.34375 58.0625 -103.34375 C 49.65625 -103.34375 43.363281 -100.332031 39.1875 -94.3125 C 35.019531 -88.289062 32.878906 -78.953125 32.765625 -66.296875 L 32.765625 -57.046875 C 32.765625 -43.828125 34.765625 -34.164062 38.765625 -28.0625 C 42.773438 -21.957031 49.09375 -18.90625 57.71875 -18.90625 C 65.507812 -18.90625 71.320312 -20.679688 75.15625 -24.234375 C 78.988281 -27.796875 81.1875 -33.300781 81.75 -40.75 Z M 106.953125 -40.75 "/></g></g></g><g fill="#829191" fill-opacity="1"><g transform="translate(917.557918, 403.667511)"><g><path d="M 33.015625 -81 C 39.460938 -88.726562 47.554688 -92.59375 57.296875 -92.59375 C 77.015625 -92.59375 87.015625 -81.140625 87.296875 -58.234375 L 87.296875 0 L 63.015625 0 L 63.015625 -57.5625 C 63.015625 -62.769531 61.894531 -66.617188 59.65625 -69.109375 C 57.414062 -71.597656 53.691406 -72.84375 48.484375 -72.84375 C 41.367188 -72.84375 36.210938 -70.097656 33.015625 -64.609375 L 33.015625 0 L 8.734375 0 L 8.734375 -129.0625 L 33.015625 -129.0625 Z M 33.015625 -81 "/></g></g></g><g fill="#829191" fill-opacity="1"><g transform="translate(1012.125707, 403.667511)"><g><path d="M 62.015625 0 C 60.890625 -2.1875 60.078125 -4.90625 59.578125 -8.15625 C 53.691406 -1.59375 46.046875 1.6875 36.640625 1.6875 C 27.734375 1.6875 20.351562 -0.890625 14.5 -6.046875 C 8.644531 -11.203125 5.71875 -17.703125 5.71875 -25.546875 C 5.71875 -35.179688 9.285156 -42.570312 16.421875 -47.71875 C 23.566406 -52.875 33.890625 -55.476562 47.390625 -55.53125 L 58.5625 -55.53125 L 58.5625 -60.75 C 58.5625 -64.945312 57.484375 -68.304688 55.328125 -70.828125 C 53.171875 -73.347656 49.769531 -74.609375 45.125 -74.609375 C 41.03125 -74.609375 37.820312 -73.628906 35.5 -71.671875 C 33.175781 -69.710938 32.015625 -67.023438 32.015625 -63.609375 L 7.734375 -63.609375 C 7.734375 -68.867188 9.359375 -73.738281 12.609375 -78.21875 C 15.859375 -82.707031 20.453125 -86.222656 26.390625 -88.765625 C 32.328125 -91.316406 38.988281 -92.59375 46.375 -92.59375 C 57.582031 -92.59375 66.476562 -89.773438 73.0625 -84.140625 C 79.644531 -78.515625 82.9375 -70.601562 82.9375 -60.40625 L 82.9375 -21 C 82.988281 -12.375 84.191406 -5.847656 86.546875 -1.421875 L 86.546875 0 Z M 41.921875 -16.890625 C 45.503906 -16.890625 48.804688 -17.6875 51.828125 -19.28125 C 54.859375 -20.875 57.101562 -23.015625 58.5625 -25.703125 L 58.5625 -41.34375 L 49.484375 -41.34375 C 37.328125 -41.34375 30.859375 -37.140625 30.078125 -28.734375 L 30 -27.3125 C 30 -24.28125 31.0625 -21.785156 33.1875 -19.828125 C 35.3125 -17.867188 38.222656 -16.890625 41.921875 -16.890625 Z M 41.921875 -16.890625 "/></g></g></g><g fill="#829191" fill-opacity="1"><g transform="translate(1102.660467, 403.667511)"><g><path d="M 38.390625 -113.265625 L 38.390625 -90.90625 L 53.9375 -90.90625 L 53.9375 -73.09375 L 38.390625 -73.09375 L 38.390625 -27.734375 C 38.390625 -24.367188 39.035156 -21.957031 40.328125 -20.5 C 41.617188 -19.039062 44.082031 -18.3125 47.71875 -18.3125 C 50.414062 -18.3125 52.796875 -18.507812 54.859375 -18.90625 L 54.859375 -0.5 C 50.097656 0.957031 45.195312 1.6875 40.15625 1.6875 C 23.132812 1.6875 14.453125 -6.910156 14.109375 -24.109375 L 14.109375 -73.09375 L 0.84375 -73.09375 L 0.84375 -90.90625 L 14.109375 -90.90625 L 14.109375 -113.265625 Z M 38.390625 -113.265625 "/></g></g></g></svg>