<svg xmlns="http://www.w3.org/2000/svg" xmlns:xlink="http://www.w3.org/1999/xlink" width="1584" zoomAndPan="magnify" viewBox="0 0 1188 296.999993" height="396" preserveAspectRatio="xMidYMid meet" version="1.0"><defs><g/><clipPath id="0a8be64ba5"><path d="M 20 65.183594 L 142.898438 65.183594 L 142.898438 231 L 20 231 Z M 20 65.183594 " clip-rule="nonzero"/></clipPath></defs><g clip-path="url(#0a8be64ba5)"><path fill="#829191" d="M 135.457031 230.960938 C 134.46875 230.957031 133.519531 230.761719 132.609375 230.367188 C 131.703125 229.972656 130.910156 229.414062 130.230469 228.691406 L 81.398438 176.902344 L 32.5625 228.691406 C 32.070312 229.214844 31.507812 229.652344 30.882812 230.003906 C 30.253906 230.359375 29.589844 230.613281 28.886719 230.765625 C 28.183594 230.921875 27.472656 230.96875 26.757812 230.910156 C 26.039062 230.855469 25.347656 230.691406 24.679688 230.425781 C 24.007812 230.160156 23.394531 229.804688 22.832031 229.355469 C 22.269531 228.902344 21.789062 228.382812 21.382812 227.789062 C 20.976562 227.191406 20.667969 226.550781 20.453125 225.863281 C 20.242188 225.175781 20.132812 224.472656 20.128906 223.753906 L 20.128906 72.390625 C 20.128906 71.917969 20.175781 71.449219 20.269531 70.984375 C 20.363281 70.519531 20.5 70.070312 20.679688 69.632812 C 20.859375 69.195312 21.082031 68.78125 21.34375 68.386719 C 21.609375 67.992188 21.90625 67.628906 22.242188 67.292969 C 22.578125 66.960938 22.941406 66.660156 23.335938 66.398438 C 23.726562 66.136719 24.144531 65.914062 24.582031 65.730469 C 25.019531 65.550781 25.46875 65.414062 25.933594 65.320312 C 26.398438 65.230469 26.867188 65.183594 27.339844 65.183594 L 135.457031 65.183594 C 135.929688 65.183594 136.398438 65.230469 136.863281 65.320312 C 137.328125 65.414062 137.777344 65.550781 138.214844 65.730469 C 138.652344 65.914062 139.066406 66.136719 139.460938 66.398438 C 139.855469 66.660156 140.21875 66.960938 140.554688 67.292969 C 140.886719 67.628906 141.1875 67.992188 141.449219 68.386719 C 141.710938 68.78125 141.933594 69.195312 142.117188 69.632812 C 142.296875 70.070312 142.433594 70.519531 142.527344 70.984375 C 142.617188 71.449219 142.664062 71.917969 142.664062 72.390625 L 142.664062 223.753906 C 142.664062 224.226562 142.617188 224.695312 142.527344 225.160156 C 142.433594 225.625 142.296875 226.074219 142.117188 226.511719 C 141.933594 226.949219 141.710938 227.367188 141.449219 227.757812 C 141.1875 228.152344 140.886719 228.515625 140.554688 228.851562 C 140.21875 229.1875 139.855469 229.484375 139.460938 229.746094 C 139.066406 230.011719 138.652344 230.234375 138.214844 230.414062 C 137.777344 230.59375 137.328125 230.730469 136.863281 230.824219 C 136.398438 230.917969 135.929688 230.960938 135.457031 230.960938 Z M 81.398438 159.351562 C 82.386719 159.355469 83.335938 159.554688 84.246094 159.949219 C 85.152344 160.34375 85.945312 160.902344 86.625 161.625 L 128.25 205.734375 L 128.25 79.597656 L 34.546875 79.597656 L 34.546875 205.734375 L 76.171875 161.585938 C 76.851562 160.871094 77.648438 160.320312 78.554688 159.933594 C 79.464844 159.546875 80.410156 159.351562 81.398438 159.351562 Z M 81.398438 159.351562 " fill-opacity="1" fill-rule="nonzero"/></g><g fill="#829191" fill-opacity="1"><g transform="translate(139.656426, 222.887872)"><g><path d="M 14.125 0 L 14.125 -158.21875 L 69.546875 -158.21875 C 88.742188 -158.21875 103.300781 -154.539062 113.21875 -147.1875 C 123.144531 -139.832031 128.109375 -129.054688 128.109375 -114.859375 C 128.109375 -107.109375 126.113281 -100.28125 122.125 -94.375 C 118.144531 -88.46875 112.609375 -84.140625 105.515625 -81.390625 C 113.628906 -79.359375 120.019531 -75.265625 124.6875 -69.109375 C 129.363281 -62.953125 131.703125 -55.421875 131.703125 -46.515625 C 131.703125 -31.296875 126.847656 -19.773438 117.140625 -11.953125 C 107.429688 -4.128906 93.59375 -0.144531 75.625 0 Z M 46.71875 -68.890625 L 46.71875 -26.1875 L 74.65625 -26.1875 C 82.332031 -26.1875 88.328125 -28.015625 92.640625 -31.671875 C 96.953125 -35.328125 99.109375 -40.378906 99.109375 -46.828125 C 99.109375 -61.316406 91.609375 -68.671875 76.609375 -68.890625 Z M 46.71875 -91.9375 L 70.84375 -91.9375 C 87.289062 -92.21875 95.515625 -98.769531 95.515625 -111.59375 C 95.515625 -118.769531 93.429688 -123.929688 89.265625 -127.078125 C 85.097656 -130.234375 78.523438 -131.8125 69.546875 -131.8125 L 46.71875 -131.8125 Z M 46.71875 -91.9375 "/></g></g></g><g fill="#829191" fill-opacity="1"><g transform="translate(279.452195, 222.887872)"><g><path d="M 7.171875 -59.875 C 7.171875 -71.539062 9.414062 -81.9375 13.90625 -91.0625 C 18.394531 -100.1875 24.859375 -107.25 33.296875 -112.25 C 41.742188 -117.25 51.546875 -119.75 62.703125 -119.75 C 78.566406 -119.75 91.515625 -114.894531 101.546875 -105.1875 C 111.578125 -95.476562 117.175781 -82.296875 118.34375 -65.640625 L 118.546875 -57.59375 C 118.546875 -39.550781 113.507812 -25.078125 103.4375 -14.171875 C 93.375 -3.273438 79.863281 2.171875 62.90625 2.171875 C 45.957031 2.171875 32.429688 -3.257812 22.328125 -14.125 C 12.222656 -24.988281 7.171875 -39.769531 7.171875 -58.46875 Z M 38.578125 -57.59375 C 38.578125 -46.4375 40.675781 -37.90625 44.875 -32 C 49.082031 -26.09375 55.097656 -23.140625 62.921875 -23.140625 C 70.523438 -23.140625 76.460938 -26.054688 80.734375 -31.890625 C 85.015625 -37.722656 87.15625 -47.050781 87.15625 -59.875 C 87.15625 -70.8125 85.015625 -79.285156 80.734375 -85.296875 C 76.460938 -91.316406 70.453125 -94.328125 62.703125 -94.328125 C 55.023438 -94.328125 49.082031 -91.335938 44.875 -85.359375 C 40.675781 -79.378906 38.578125 -70.125 38.578125 -57.59375 Z M 38.578125 -57.59375 "/></g></g></g><g fill="#829191" fill-opacity="1"><g transform="translate(403.057281, 222.887872)"><g><path d="M 7.171875 -59.875 C 7.171875 -71.539062 9.414062 -81.9375 13.90625 -91.0625 C 18.394531 -100.1875 24.859375 -107.25 33.296875 -112.25 C 41.742188 -117.25 51.546875 -119.75 62.703125 -119.75 C 78.566406 -119.75 91.515625 -114.894531 101.546875 -105.1875 C 111.578125 -95.476562 117.175781 -82.296875 118.34375 -65.640625 L 118.546875 -57.59375 C 118.546875 -39.550781 113.507812 -25.078125 103.4375 -14.171875 C 93.375 -3.273438 79.863281 2.171875 62.90625 2.171875 C 45.957031 2.171875 32.429688 -3.257812 22.328125 -14.125 C 12.222656 -24.988281 7.171875 -39.769531 7.171875 -58.46875 Z M 38.578125 -57.59375 C 38.578125 -46.4375 40.675781 -37.90625 44.875 -32 C 49.082031 -26.09375 55.097656 -23.140625 62.921875 -23.140625 C 70.523438 -23.140625 76.460938 -26.054688 80.734375 -31.890625 C 85.015625 -37.722656 87.15625 -47.050781 87.15625 -59.875 C 87.15625 -70.8125 85.015625 -79.285156 80.734375 -85.296875 C 76.460938 -91.316406 70.453125 -94.328125 62.703125 -94.328125 C 55.023438 -94.328125 49.082031 -91.335938 44.875 -85.359375 C 40.675781 -79.378906 38.578125 -70.125 38.578125 -57.59375 Z M 38.578125 -57.59375 "/></g></g></g><g fill="#829191" fill-opacity="1"><g transform="translate(526.662367, 222.887872)"><g><path d="M 54.765625 -47.15625 L 43.46875 -35.859375 L 43.46875 0 L 12.0625 0 L 12.0625 -166.90625 L 43.46875 -166.90625 L 43.46875 -74.4375 L 49.546875 -82.265625 L 79.65625 -117.578125 L 117.359375 -117.578125 L 74.875 -68.5625 L 121.046875 0 L 84.96875 0 Z M 54.765625 -47.15625 "/></g></g></g><g fill="#829191" fill-opacity="1"><g transform="translate(643.313079, 222.887872)"><g><path d="M 41.515625 -117.578125 L 42.484375 -104.421875 C 50.816406 -114.640625 62.082031 -119.75 76.28125 -119.75 C 91.425781 -119.75 101.820312 -113.769531 107.46875 -101.8125 C 115.726562 -113.769531 127.5 -119.75 142.78125 -119.75 C 155.53125 -119.75 165.019531 -116.035156 171.25 -108.609375 C 177.488281 -101.179688 180.609375 -90.007812 180.609375 -75.09375 L 180.609375 0 L 149.09375 0 L 149.09375 -74.984375 C 149.09375 -81.640625 147.785156 -86.507812 145.171875 -89.59375 C 142.566406 -92.675781 137.96875 -94.21875 131.375 -94.21875 C 121.957031 -94.21875 115.4375 -89.722656 111.8125 -80.734375 L 111.921875 0 L 80.515625 0 L 80.515625 -74.875 C 80.515625 -81.675781 79.175781 -86.597656 76.5 -89.640625 C 73.820312 -92.691406 69.257812 -94.21875 62.8125 -94.21875 C 53.894531 -94.21875 47.445312 -90.519531 43.46875 -83.125 L 43.46875 0 L 12.0625 0 L 12.0625 -117.578125 Z M 41.515625 -117.578125 "/></g></g></g><g fill="#829191" fill-opacity="1"><g transform="translate(833.745384, 222.887872)"><g><path d="M 80.1875 0 C 78.738281 -2.820312 77.691406 -6.335938 77.046875 -10.546875 C 69.441406 -2.066406 59.550781 2.171875 47.375 2.171875 C 35.851562 2.171875 26.304688 -1.160156 18.734375 -7.828125 C 11.171875 -14.492188 7.390625 -22.894531 7.390625 -33.03125 C 7.390625 -45.488281 12.003906 -55.050781 21.234375 -61.71875 C 30.472656 -68.382812 43.820312 -71.753906 61.28125 -71.828125 L 75.734375 -71.828125 L 75.734375 -78.5625 C 75.734375 -84 74.335938 -88.347656 71.546875 -91.609375 C 68.765625 -94.867188 64.367188 -96.5 58.359375 -96.5 C 53.066406 -96.5 48.914062 -95.226562 45.90625 -92.6875 C 42.90625 -90.15625 41.40625 -86.679688 41.40625 -82.265625 L 10 -82.265625 C 10 -89.066406 12.097656 -95.363281 16.296875 -101.15625 C 20.503906 -106.957031 26.445312 -111.503906 34.125 -114.796875 C 41.800781 -118.097656 50.421875 -119.75 59.984375 -119.75 C 74.472656 -119.75 85.972656 -116.109375 94.484375 -108.828125 C 102.992188 -101.546875 107.25 -91.3125 107.25 -78.125 L 107.25 -27.171875 C 107.320312 -16.015625 108.878906 -7.570312 111.921875 -1.84375 L 111.921875 0 Z M 54.21875 -21.84375 C 58.851562 -21.84375 63.128906 -22.875 67.046875 -24.9375 C 70.960938 -27 73.859375 -29.769531 75.734375 -33.25 L 75.734375 -53.46875 L 64 -53.46875 C 48.28125 -53.46875 39.914062 -48.03125 38.90625 -37.15625 L 38.796875 -35.3125 C 38.796875 -31.40625 40.171875 -28.179688 42.921875 -25.640625 C 45.671875 -23.109375 49.4375 -21.84375 54.21875 -21.84375 Z M 54.21875 -21.84375 "/></g></g></g><g fill="#829191" fill-opacity="1"><g transform="translate(950.830746, 222.887872)"><g><path d="M 78.125 -88.125 C 73.851562 -88.707031 70.085938 -89 66.828125 -89 C 54.953125 -89 47.164062 -84.976562 43.46875 -76.9375 L 43.46875 0 L 12.0625 0 L 12.0625 -117.578125 L 41.734375 -117.578125 L 42.59375 -103.5625 C 48.894531 -114.351562 57.625 -119.75 68.78125 -119.75 C 72.257812 -119.75 75.519531 -119.28125 78.5625 -118.34375 Z M 78.125 -88.125 "/></g></g></g><g fill="#829191" fill-opacity="1"><g transform="translate(1029.775738, 222.887872)"><g><path d="M 54.765625 -47.15625 L 43.46875 -35.859375 L 43.46875 0 L 12.0625 0 L 12.0625 -166.90625 L 43.46875 -166.90625 L 43.46875 -74.4375 L 49.546875 -82.265625 L 79.65625 -117.578125 L 117.359375 -117.578125 L 74.875 -68.5625 L 121.046875 0 L 84.96875 0 Z M 54.765625 -47.15625 "/></g></g></g></svg>